<svg width="640" height="380" viewBox="0 0 640 380" fill="none" xmlns="http://www.w3.org/2000/svg" role="img" aria-labelledby="title desc">
  <title id="title">Flat battery roadside assistance</title>
  <desc id="desc">A car with open bonnet receiving jump lead support.</desc>
  <rect width="640" height="380" fill="#F6F0E5"/>
  <rect y="286" width="640" height="94" fill="#D6DEE8"/>
  <rect x="120" y="202" width="252" height="70" rx="16" fill="#485D75"/>
  <path d="M136 202L190 170H322L356 202" fill="#5D738C"/>
  <path d="M188 170L210 132H296L316 170" fill="#6E8298"/>
  <circle cx="174" cy="276" r="20" fill="#0F1926"/>
  <circle cx="316" cy="276" r="20" fill="#0F1926"/>
  <rect x="430" y="186" width="92" height="70" rx="10" fill="#203247"/>
  <rect x="444" y="200" width="18" height="20" rx="3" fill="#F58220"/>
  <rect x="490" y="200" width="18" height="20" rx="3" fill="#A9C0D8"/>
  <path d="M462 220C430 240 408 246 366 224" stroke="#F58220" stroke-width="5" fill="none"/>
  <path d="M499 220C460 250 432 258 338 238" stroke="#2E4660" stroke-width="5" fill="none"/>
  <circle cx="430" cy="180" r="10" fill="#2E4660"/>
  <rect x="422" y="162" width="16" height="8" rx="2" fill="#2E4660"/>
</svg>
